<svg width="22" height="14" viewBox="0 0 22 14" fill="none" xmlns="http://www.w3.org/2000/svg">
<path d="M10.7852 1.40348C11.5792 2.01701 12.2211 2.8003 12.6622 3.69408C13.1032 4.58786 13.332 5.56869 13.3311 6.56235C13.3317 7.55568 13.1028 8.53613 12.6617 9.42955C12.2207 10.323 11.579 11.106 10.7852 11.7193C9.99132 11.1059 9.34956 10.3227 8.90849 9.42912C8.46743 8.53552 8.23862 7.55487 8.23937 6.56138C8.23862 5.56789 8.46743 4.58725 8.90849 3.69365C9.34956 2.80005 9.99132 2.01691 10.7852 1.40348ZM9.93202 0.84164C9.09153 1.54787 8.41685 2.42533 7.95461 3.41338C7.49236 4.40142 7.25358 5.47649 7.25477 6.56428C7.25362 7.65159 7.49224 8.72619 7.95413 9.71387C8.41602 10.7016 9.09018 11.5788 9.93006 12.285C8.91544 12.8457 7.7694 13.1352 6.60589 13.1247C5.44237 13.1143 4.30189 12.8043 3.29782 12.2255C2.29375 11.6467 1.46105 10.8193 0.882501 9.8255C0.303954 8.83174 -0.000294261 7.70622 2.13557e-07 6.56084C0.000294688 5.41545 0.305122 4.29009 0.88418 3.29662C1.46324 2.30314 2.29636 1.47615 3.30073 0.897859C4.3051 0.319565 5.44574 0.010106 6.60926 0.000243358C7.77278 -0.00961932 8.91769 0.280458 9.93202 0.84164ZM11.6404 12.285C12.4802 11.5788 13.1544 10.7016 13.6163 9.71387C14.0782 8.72619 14.3168 7.65159 14.3157 6.56428C14.3169 5.47649 14.0781 4.40142 13.6158 3.41338C13.1536 2.42533 12.4789 1.54787 11.6384 0.84164C12.6527 0.280458 13.7986 -0.00961932 14.9622 0.000243358C16.1257 0.010106 17.2663 0.319565 18.2707 0.897859C19.2751 1.47615 20.1082 2.30314 20.6872 3.29662C21.2663 4.29009 21.5711 5.41545 21.5714 6.56084C21.5717 7.70622 21.2675 8.83174 20.6889 9.8255C20.1104 10.8193 19.2777 11.6467 18.2736 12.2255C17.2695 12.8043 16.129 13.1143 14.9655 13.1247C13.802 13.1352 12.656 12.8457 11.6413 12.285H11.6404Z" fill="#A6A6A6"/>
</svg>
