<svg width="32" height="10" viewBox="0 0 32 10" fill="none" xmlns="http://www.w3.org/2000/svg">
<path d="M23.0862 4.15332V9.18757H25.846V6.20431H28.9738C30.2893 6.19499 31.407 5.34196 31.8302 4.15332H23.0862Z" fill="#A6A6A6"/>
<path d="M22.718 0.0045166C22.879 2.06017 24.8017 3.68697 27.1475 3.68697C27.1567 3.68697 31.945 3.68697 31.945 3.68697C31.9818 3.50052 32.0002 3.30474 32.0002 3.10431C32.0002 1.39826 30.6433 0.0185006 28.9644 0.0045166H22.718Z" fill="#A6A6A6"/>
<path d="M18.6332 3.6357C18.6654 3.57976 18.716 3.54713 18.7804 3.54713C18.8723 3.54713 18.9413 3.62172 18.9459 3.71028V9.14074H21.7057V0.0045166H18.9459C18.5964 0.0185006 18.2008 0.274874 18.0536 0.596506L15.8596 5.36972C15.855 5.38836 15.8458 5.40701 15.8366 5.42565C15.8044 5.47227 15.7492 5.5049 15.6848 5.5049C15.5836 5.5049 15.5008 5.42099 15.5008 5.31844V0.0045166H12.741V9.14074H15.5008C15.8458 9.1221 16.2321 8.86572 16.3793 8.54875L18.6332 3.64968C18.6286 3.64502 18.6332 3.64036 18.6332 3.6357Z" fill="#A6A6A6"/>
<path d="M8.33003 3.79433L6.71554 9.14088H4.72848L3.11859 3.78967C3.10479 3.70576 3.03119 3.64051 2.9392 3.64051C2.838 3.64051 2.75981 3.72441 2.75981 3.8223V9.13622H0V0H2.36884H3.07259C3.57855 0 4.11212 0.400875 4.25931 0.890316L5.60242 5.34189C5.67141 5.56564 5.7772 5.56098 5.8462 5.34189L7.18931 0.890316C7.3365 0.396214 7.87006 0 8.37602 0H9.07978H11.4486V9.13622H8.6888V3.8223C8.6888 3.8223 8.6888 3.8223 8.6888 3.81764C8.6888 3.71509 8.60601 3.63584 8.50941 3.63584C8.41742 3.64051 8.34383 3.70576 8.33003 3.79433Z" fill="#A6A6A6"/>
</svg>
