<svg width="32" height="11" viewBox="0 0 32 11" fill="none" xmlns="http://www.w3.org/2000/svg">
<path d="M15.8442 0.191657L13.7071 10.5092H11.1208L13.2611 0.191657H15.8442ZM26.7239 6.85337L28.0843 2.97838L28.8685 6.85337H26.7239ZM29.6079 10.5092H32L29.913 0.191657H27.7055C27.7023 0.191657 27.6981 0.191657 27.6949 0.191657C27.2051 0.191657 26.7847 0.50117 26.6076 0.940658L26.6044 0.948368L22.7261 10.5092H25.4404L25.9803 8.96709H29.2974L29.6079 10.5092ZM22.8594 7.14085C22.8701 4.41691 19.2115 4.26711 19.2371 3.04998C19.2457 2.67988 19.586 2.28556 20.3329 2.18532C20.4716 2.171 20.6316 2.16219 20.7938 2.16219C21.5524 2.16219 22.2715 2.34063 22.9117 2.66006L22.8829 2.64684L23.3364 0.458213C22.6183 0.170729 21.7871 0.00330442 20.9186 0H20.9176C18.3612 0 16.5634 1.40438 16.5473 3.41236C16.5313 4.89715 17.8309 5.72436 18.8114 6.22002C19.8197 6.72559 20.1579 7.05053 20.1526 7.50103C20.1462 8.19496 19.3502 8.49897 18.6055 8.51108C18.5714 8.51218 18.5297 8.51218 18.4892 8.51218C17.5599 8.51218 16.685 8.27096 15.921 7.84469L15.9499 7.85901L15.4815 10.1192C16.3201 10.4662 17.2921 10.6667 18.3099 10.6667C18.326 10.6667 18.342 10.6667 18.358 10.6667H18.3558C21.0723 10.6667 22.8488 9.28211 22.8584 7.13755L22.8594 7.14085ZM12.1494 0.191657L7.96052 10.5092H5.22699L3.16564 2.27344C3.12617 1.8725 2.88824 1.53766 2.55748 1.37023L2.55108 1.36693C1.81702 0.99463 0.963457 0.691725 0.0704189 0.50117L0 0.489054L0.0618833 0.190555H4.46199C5.06162 0.190555 5.55988 0.643261 5.65271 1.23475L5.65377 1.24136L6.74313 7.21245L9.43398 0.189453L12.1494 0.191657Z" fill="#A6A6A6"/>
</svg>
